ply
format ascii 1.0
comment Created by Blender 2.79 (sub 0) - www.blender.org, source file: 'pom_low.blend'
element vertex 200
property float x
property float y
property float z
property float nx
property float ny
property float nz
property float s
property float t
element face 64
property list uchar uint vertex_indices
end_header
-0.750000 0.000000 0.750000 0.000000 1.000000 0.000000 0.860745 0.124039
-1.000000 0.000000 0.750000 0.000000 1.000000 0.000000 0.859859 0.001250
-1.000000 0.000000 1.000000 0.000000 1.000000 0.000000 0.982276 0.000001
-0.750000 0.000000 1.000000 0.000000 1.000000 0.000000 0.983526 0.122418
0.250000 0.000000 0.750000 0.000000 1.000000 0.000000 0.870608 0.613338
0.000000 0.000000 0.750000 0.000000 1.000000 0.000000 0.867456 0.490354
0.000000 0.000000 1.000000 0.000000 1.000000 0.000000 0.990841 0.488410
0.250000 0.000000 1.000000 0.000000 1.000000 0.000000 0.993623 0.611427
0.250000 0.362624 -0.250000 -0.506292 0.698095 0.506292 0.350253 0.645062
0.000000 0.000000 -0.250000 -0.506292 0.698095 0.506292 0.374676 0.495181
0.000000 0.000000 0.000000 -0.506292 0.698095 0.506292 0.500000 0.492226
0.250000 0.000000 0.000000 -0.506292 0.698095 0.506292 0.499604 0.617585
-0.750000 0.000000 -0.250000 0.000000 1.000000 0.000000 0.371347 0.124167
-1.000000 0.000000 -0.250000 0.000000 1.000000 0.000000 0.370745 0.001139
-1.000000 0.000000 0.000000 0.000000 1.000000 0.000000 0.493794 0.001409
-0.750000 0.000000 0.000000 0.000000 1.000000 0.000000 0.494369 0.124808
-0.250000 0.362624 -0.250000 0.000000 0.567601 0.823304 0.341276 0.336709
-0.500000 0.362624 -0.250000 0.000000 0.567601 0.823304 0.344439 0.276672
-0.500000 0.000000 0.000000 0.000000 0.567601 0.823304 0.493337 0.250247
-0.250000 0.000000 0.000000 0.000000 0.567601 0.823304 0.500396 0.366867
-0.250000 0.000000 -0.750000 0.000000 0.567601 -0.823304 0.129392 0.371114
-0.500000 0.000000 -0.750000 0.000000 0.567601 -0.823304 0.125044 0.251438
-0.500000 0.362624 -0.500000 0.000000 0.567601 -0.823304 0.284231 0.280818
-0.250000 0.362624 -0.500000 0.000000 0.567601 -0.823304 0.281316 0.341098
-0.750000 0.000000 -0.750000 0.000000 1.000000 0.000000 0.125391 0.125188
-1.000000 0.000000 -0.750000 0.000000 1.000000 0.000000 0.124070 0.001084
-1.000000 0.000000 -0.500000 0.000000 1.000000 0.000000 0.249060 0.000000
-0.750000 0.000000 -0.500000 0.000000 1.000000 0.000000 0.251608 0.122263
0.750000 0.000000 -0.250000 0.506292 0.698095 0.506292 0.380622 0.862391
0.500000 0.362624 -0.250000 0.506292 0.698095 0.506292 0.347314 0.704873
0.500000 0.000000 0.000000 0.506292 0.698095 0.506292 0.506663 0.734205
0.750000 0.000000 0.000000 0.506292 0.698095 0.506292 0.505631 0.859643
0.750000 0.000000 -0.750000 0.506292 0.698095 -0.506292 0.139256 0.860412
0.500000 0.000000 -0.750000 0.506292 0.698095 -0.506292 0.136972 0.738235
0.500000 0.362624 -0.500000 0.506292 0.698095 -0.506292 0.287340 0.709273
0.750000 0.000000 -0.500000 0.506292 0.698095 -0.506292 0.261454 0.860201
0.250000 0.000000 -0.750000 -0.506292 0.698095 -0.506292 0.132349 0.619136
0.000000 0.000000 -0.750000 -0.506292 0.698095 -0.506292 0.132544 0.494097
0.000000 0.000000 -0.500000 -0.506292 0.698095 -0.506292 0.257936 0.490504
0.250000 0.362624 -0.500000 -0.506292 0.698095 -0.506292 0.290514 0.649222
0.750000 0.000000 0.750000 0.000000 1.000000 0.000000 0.874609 0.859263
0.500000 0.000000 0.750000 0.000000 1.000000 0.000000 0.874956 0.733013
0.500000 0.000000 1.000000 0.000000 1.000000 0.000000 0.997246 0.733064
0.750000 0.000000 1.000000 0.000000 1.000000 0.000000 0.998714 0.858050
0.750000 0.000000 0.250000 0.823304 0.567601 0.000000 0.628654 0.860284
0.500000 0.362624 0.250000 0.823304 0.567601 0.000000 0.655561 0.707779
0.500000 0.362624 0.500000 0.823304 0.567601 0.000000 0.715769 0.703633
0.750000 0.000000 0.500000 0.823304 0.567601 0.000000 0.748392 0.862188
0.250000 0.362624 0.250000 -0.823304 0.567601 0.000000 0.658725 0.647742
0.000000 0.000000 0.250000 -0.823304 0.567601 0.000000 0.625325 0.489270
0.000000 0.000000 0.500000 -0.823304 0.567601 0.000000 0.742065 0.493947
0.250000 0.362624 0.500000 -0.823304 0.567601 0.000000 0.718684 0.643353
-0.250000 0.000000 0.750000 0.000000 1.000000 0.000000 0.867651 0.365315
-0.500000 0.000000 0.750000 0.000000 1.000000 0.000000 0.863028 0.246216
-0.500000 0.000000 1.000000 0.000000 1.000000 0.000000 0.985505 0.244637
-0.250000 0.000000 1.000000 0.000000 1.000000 0.000000 0.988885 0.365037
-0.250000 0.362624 0.250000 0.000000 1.000000 0.000000 0.649747 0.339390
-0.500000 0.362624 0.250000 0.000000 1.000000 0.000000 0.652686 0.279578
-0.500000 0.362624 0.500000 0.000000 1.000000 0.000000 0.712661 0.275178
-0.250000 0.362624 0.500000 0.000000 1.000000 0.000000 0.709486 0.335230
-0.750000 0.000000 0.250000 0.000000 1.000000 0.000000 0.619378 0.122060
-1.000000 0.000000 0.250000 0.000000 1.000000 0.000000 0.617182 0.000846
-1.000000 0.000000 0.500000 0.000000 1.000000 0.000000 0.737625 0.001767
-0.750000 0.000000 0.500000 0.000000 1.000000 0.000000 0.738547 0.124251
-0.500000 0.362624 0.250000 -0.823304 0.567601 0.000000 0.652686 0.279578
-0.750000 0.000000 0.250000 -0.823304 0.567601 0.000000 0.619378 0.122060
-0.750000 0.000000 0.500000 -0.823304 0.567601 0.000000 0.738547 0.124251
-0.500000 0.362624 0.500000 -0.823304 0.567601 0.000000 0.712661 0.275178
-0.500000 0.000000 0.000000 -0.506292 0.698095 -0.506292 0.493337 0.250247
-0.750000 0.000000 0.000000 -0.506292 0.698095 -0.506292 0.494369 0.124808
-0.750000 0.000000 0.250000 -0.506292 0.698095 -0.506292 0.619378 0.122060
-0.500000 0.362624 0.250000 -0.506292 0.698095 -0.506292 0.652686 0.279578
0.000000 0.000000 0.250000 0.823304 0.567601 0.000000 0.625325 0.489270
-0.250000 0.362624 0.250000 0.823304 0.567601 0.000000 0.649747 0.339390
-0.250000 0.362624 0.500000 0.823304 0.567601 0.000000 0.709486 0.335230
0.000000 0.000000 0.500000 0.823304 0.567601 0.000000 0.742065 0.493947
0.000000 0.000000 0.000000 0.506292 0.698095 -0.506292 0.500000 0.492226
-0.250000 0.000000 0.000000 0.506292 0.698095 -0.506292 0.500396 0.366867
-0.250000 0.362624 0.250000 0.506292 0.698095 -0.506292 0.649747 0.339390
0.000000 0.000000 0.250000 0.506292 0.698095 -0.506292 0.625325 0.489270
-0.250000 0.000000 0.000000 0.000000 0.567601 -0.823304 0.500396 0.366867
-0.500000 0.000000 0.000000 0.000000 0.567601 -0.823304 0.493337 0.250247
-0.500000 0.362624 0.250000 0.000000 0.567601 -0.823304 0.652686 0.279578
-0.250000 0.362624 0.250000 0.000000 0.567601 -0.823304 0.649747 0.339390
0.000000 0.000000 0.500000 0.506292 0.698095 0.506292 0.742065 0.493947
-0.250000 0.362624 0.500000 0.506292 0.698095 0.506292 0.709486 0.335230
-0.250000 0.000000 0.750000 0.506292 0.698095 0.506292 0.867651 0.365315
0.000000 0.000000 0.750000 0.506292 0.698095 0.506292 0.867456 0.490354
-0.250000 0.362624 0.500000 0.000000 0.567601 0.823304 0.709486 0.335230
-0.500000 0.362624 0.500000 0.000000 0.567601 0.823304 0.712661 0.275178
-0.500000 0.000000 0.750000 0.000000 0.567601 0.823304 0.863028 0.246216
-0.250000 0.000000 0.750000 0.000000 0.567601 0.823304 0.867651 0.365315
0.500000 0.362624 0.250000 0.000000 1.000000 0.000000 0.655561 0.707779
0.250000 0.362624 0.250000 0.000000 1.000000 0.000000 0.658725 0.647742
0.250000 0.362624 0.500000 0.000000 1.000000 0.000000 0.718684 0.643353
0.500000 0.362624 0.500000 0.000000 1.000000 0.000000 0.715769 0.703633
0.500000 0.000000 0.000000 0.000000 0.567601 -0.823304 0.506663 0.734205
0.250000 0.000000 0.000000 0.000000 0.567601 -0.823304 0.499604 0.617585
0.250000 0.362624 0.250000 0.000000 0.567601 -0.823304 0.658725 0.647742
0.500000 0.362624 0.250000 0.000000 0.567601 -0.823304 0.655561 0.707779
0.250000 0.000000 0.000000 -0.506292 0.698095 -0.506292 0.499604 0.617585
0.000000 0.000000 0.000000 -0.506292 0.698095 -0.506292 0.500000 0.492226
0.000000 0.000000 0.250000 -0.506292 0.698095 -0.506292 0.625325 0.489270
0.250000 0.362624 0.250000 -0.506292 0.698095 -0.506292 0.658725 0.647742
1.000000 0.000000 0.250000 0.000000 1.000000 0.000000 0.629255 0.983312
0.750000 0.000000 0.250000 0.000000 1.000000 0.000000 0.628654 0.860284
0.750000 0.000000 0.500000 0.000000 1.000000 0.000000 0.748392 0.862188
1.000000 0.000000 0.500000 0.000000 1.000000 0.000000 0.750940 0.984451
1.000000 0.000000 0.000000 0.000000 1.000000 0.000000 0.506207 0.983042
0.750000 0.000000 0.000000 0.000000 1.000000 0.000000 0.505631 0.859643
0.750000 0.000000 0.000000 0.506292 0.698095 -0.506292 0.505631 0.859643
0.500000 0.000000 0.000000 0.506292 0.698095 -0.506292 0.506663 0.734205
0.500000 0.362624 0.250000 0.506292 0.698095 -0.506292 0.655561 0.707779
0.750000 0.000000 0.250000 0.506292 0.698095 -0.506292 0.628654 0.860284
1.000000 0.000000 0.750000 0.000000 1.000000 0.000000 0.875930 0.983367
1.000000 0.000000 1.000000 0.000000 1.000000 0.000000 1.000000 0.982119
0.750000 0.000000 0.500000 0.506292 0.698095 0.506292 0.748392 0.862188
0.500000 0.362624 0.500000 0.506292 0.698095 0.506292 0.715769 0.703633
0.500000 0.000000 0.750000 0.506292 0.698095 0.506292 0.874956 0.733013
0.750000 0.000000 0.750000 0.506292 0.698095 0.506292 0.874609 0.859263
0.500000 0.000000 -0.750000 0.000000 0.567601 -0.823304 0.136972 0.738235
0.250000 0.000000 -0.750000 0.000000 0.567601 -0.823304 0.132349 0.619136
0.250000 0.362624 -0.500000 0.000000 0.567601 -0.823304 0.290514 0.649222
0.500000 0.362624 -0.500000 0.000000 0.567601 -0.823304 0.287340 0.709273
0.500000 0.000000 -1.000000 0.000000 1.000000 0.000000 0.014495 0.739814
0.250000 0.000000 -1.000000 0.000000 1.000000 0.000000 0.011116 0.619415
0.250000 0.000000 -0.750000 0.000000 1.000000 0.000000 0.132349 0.619136
0.500000 0.000000 -0.750000 0.000000 1.000000 0.000000 0.136972 0.738235
0.000000 0.000000 -1.000000 0.000000 1.000000 0.000000 0.009159 0.496041
0.000000 0.000000 -0.750000 0.000000 1.000000 0.000000 0.132544 0.494097
1.000000 0.000000 -0.750000 0.000000 1.000000 0.000000 0.140142 0.983201
0.750000 0.000000 -0.750000 0.000000 1.000000 0.000000 0.139256 0.860412
0.750000 0.000000 -0.500000 0.000000 1.000000 0.000000 0.261454 0.860201
1.000000 0.000000 -0.500000 0.000000 1.000000 0.000000 0.262376 0.982684
1.000000 0.000000 -1.000000 0.000000 1.000000 0.000000 0.017724 0.984451
0.750000 0.000000 -1.000000 0.000000 1.000000 0.000000 0.016474 0.862033
1.000000 0.000000 -0.250000 0.000000 1.000000 0.000000 0.382819 0.983605
0.750000 0.000000 -0.250000 0.000000 1.000000 0.000000 0.380622 0.862391
0.750000 0.000000 -0.500000 0.823304 0.567601 0.000000 0.261454 0.860201
0.500000 0.362624 -0.500000 0.823304 0.567601 0.000000 0.287340 0.709273
0.500000 0.362624 -0.250000 0.823304 0.567601 0.000000 0.347314 0.704873
0.750000 0.000000 -0.250000 0.823304 0.567601 0.000000 0.380622 0.862391
-0.500000 0.000000 -0.750000 -0.506292 0.698095 -0.506292 0.125044 0.251438
-0.750000 0.000000 -0.750000 -0.506292 0.698095 -0.506292 0.125391 0.125188
-0.750000 0.000000 -0.500000 -0.506292 0.698095 -0.506292 0.251608 0.122263
-0.500000 0.362624 -0.500000 -0.506292 0.698095 -0.506292 0.284231 0.280818
-0.500000 0.000000 -1.000000 0.000000 1.000000 0.000000 0.002754 0.251388
-0.750000 0.000000 -1.000000 0.000000 1.000000 0.000000 0.001286 0.126401
-0.500000 0.000000 -0.750000 0.000000 1.000000 0.000000 0.125044 0.251438
-1.000000 0.000000 -1.000000 0.000000 1.000000 0.000000 0.000000 0.002332
0.000000 0.000000 -0.750000 0.506292 0.698095 -0.506292 0.132544 0.494097
-0.250000 0.000000 -0.750000 0.506292 0.698095 -0.506292 0.129392 0.371114
-0.250000 0.362624 -0.500000 0.506292 0.698095 -0.506292 0.281316 0.341098
0.000000 0.000000 -0.500000 0.506292 0.698095 -0.506292 0.257936 0.490504
-0.250000 0.000000 -1.000000 0.000000 1.000000 0.000000 0.006377 0.373024
-0.250000 0.000000 -0.750000 0.000000 1.000000 0.000000 0.129392 0.371114
0.000000 0.000000 -0.250000 0.506292 0.698095 0.506292 0.374676 0.495181
-0.250000 0.362624 -0.250000 0.506292 0.698095 0.506292 0.341276 0.336709
-0.250000 0.000000 0.000000 0.506292 0.698095 0.506292 0.500396 0.366867
0.000000 0.000000 0.000000 0.506292 0.698095 0.506292 0.500000 0.492226
0.000000 0.000000 -0.500000 0.823304 0.567601 0.000000 0.257936 0.490504
-0.250000 0.362624 -0.500000 0.823304 0.567601 0.000000 0.281316 0.341098
-0.250000 0.362624 -0.250000 0.823304 0.567601 0.000000 0.341276 0.336709
0.000000 0.000000 -0.250000 0.823304 0.567601 0.000000 0.374676 0.495181
-0.250000 0.362624 -0.500000 0.000000 1.000000 0.000000 0.281316 0.341098
-0.500000 0.362624 -0.500000 0.000000 1.000000 0.000000 0.284231 0.280818
-0.500000 0.362624 -0.250000 0.000000 1.000000 0.000000 0.344439 0.276672
-0.250000 0.362624 -0.250000 0.000000 1.000000 0.000000 0.341276 0.336709
-0.500000 0.362624 -0.250000 -0.506292 0.698095 0.506292 0.344439 0.276672
-0.750000 0.000000 -0.250000 -0.506292 0.698095 0.506292 0.371347 0.124167
-0.750000 0.000000 0.000000 -0.506292 0.698095 0.506292 0.494369 0.124808
-0.500000 0.000000 0.000000 -0.506292 0.698095 0.506292 0.493337 0.250247
-0.500000 0.362624 -0.500000 -0.823304 0.567601 0.000000 0.284231 0.280818
-0.750000 0.000000 -0.500000 -0.823304 0.567601 0.000000 0.251608 0.122263
-0.750000 0.000000 -0.250000 -0.823304 0.567601 0.000000 0.371347 0.124167
-0.500000 0.362624 -0.250000 -0.823304 0.567601 0.000000 0.344439 0.276672
0.500000 0.362624 -0.250000 0.000000 0.567601 0.823304 0.347314 0.704873
0.250000 0.362624 -0.250000 0.000000 0.567601 0.823304 0.350253 0.645062
0.250000 0.000000 0.000000 0.000000 0.567601 0.823304 0.499604 0.617585
0.500000 0.000000 0.000000 0.000000 0.567601 0.823304 0.506663 0.734205
0.500000 0.362624 -0.500000 0.000000 1.000000 0.000000 0.287340 0.709273
0.250000 0.362624 -0.500000 0.000000 1.000000 0.000000 0.290514 0.649222
0.250000 0.362624 -0.250000 0.000000 1.000000 0.000000 0.350253 0.645062
0.500000 0.362624 -0.250000 0.000000 1.000000 0.000000 0.347314 0.704873
0.250000 0.362624 -0.500000 -0.823304 0.567601 0.000000 0.290514 0.649222
0.000000 0.000000 -0.500000 -0.823304 0.567601 0.000000 0.257936 0.490504
0.000000 0.000000 -0.250000 -0.823304 0.567601 0.000000 0.374676 0.495181
0.250000 0.362624 -0.250000 -0.823304 0.567601 0.000000 0.350253 0.645062
0.500000 0.362624 0.500000 0.000000 0.567601 0.823304 0.715769 0.703633
0.250000 0.362624 0.500000 0.000000 0.567601 0.823304 0.718684 0.643353
0.250000 0.000000 0.750000 0.000000 0.567601 0.823304 0.870608 0.613338
0.500000 0.000000 0.750000 0.000000 0.567601 0.823304 0.874956 0.733013
0.250000 0.362624 0.500000 -0.506292 0.698095 0.506292 0.718684 0.643353
0.000000 0.000000 0.500000 -0.506292 0.698095 0.506292 0.742065 0.493947
0.000000 0.000000 0.750000 -0.506292 0.698095 0.506292 0.867456 0.490354
0.250000 0.000000 0.750000 -0.506292 0.698095 0.506292 0.870608 0.613338
-0.500000 0.362624 0.500000 -0.506292 0.698095 0.506292 0.712661 0.275178
-0.750000 0.000000 0.500000 -0.506292 0.698095 0.506292 0.738547 0.124251
-0.750000 0.000000 0.750000 -0.506292 0.698095 0.506292 0.860745 0.124039
-0.500000 0.000000 0.750000 -0.506292 0.698095 0.506292 0.863028 0.246216
4 0 1 2 3
4 4 5 6 7
4 8 9 10 11
4 12 13 14 15
4 16 17 18 19
4 20 21 22 23
4 24 25 26 27
4 28 29 30 31
4 32 33 34 35
4 36 37 38 39
4 40 41 42 43
4 44 45 46 47
4 48 49 50 51
4 52 53 54 55
4 56 57 58 59
4 60 61 62 63
4 64 65 66 67
4 68 69 70 71
4 15 14 61 60
4 72 73 74 75
4 76 77 78 79
4 80 81 82 83
4 5 52 55 6
4 84 85 86 87
4 88 89 90 91
4 92 93 94 95
4 96 97 98 99
4 100 101 102 103
4 104 105 106 107
4 108 109 105 104
4 110 111 112 113
4 114 40 43 115
4 107 106 40 114
4 116 117 118 119
4 120 121 122 123
4 124 125 126 127
4 125 128 129 126
4 130 131 132 133
4 134 135 131 130
4 135 124 127 131
4 136 137 109 108
4 133 132 137 136
4 138 139 140 141
4 142 143 144 145
4 146 147 24 148
4 147 149 25 24
4 150 151 152 153
4 128 154 155 129
4 154 146 148 155
4 156 157 158 159
4 160 161 162 163
4 164 165 166 167
4 168 169 170 171
4 172 173 174 175
4 27 26 13 12
4 176 177 178 179
4 180 181 182 183
4 184 185 186 187
4 41 4 7 42
4 188 189 190 191
4 192 193 194 195
4 53 0 3 54
4 196 197 198 199
4 63 62 1 0
