# Blender v2.79 (sub 0) OBJ File: 'pom_low.blend'
# www.blender.org
mtllib pom_low.mtl
o Plane
v -1.000000 0.000000 1.000000
v 1.000000 0.000000 1.000000
v -1.000000 0.000000 -1.000000
v 1.000000 0.000000 -1.000000
v -1.000000 0.000000 0.000000
v 0.000000 0.000000 1.000000
v 1.000000 0.000000 0.000000
v 0.000000 0.000000 -1.000000
v 0.000000 0.000000 0.000000
v -1.000000 0.000000 0.500000
v 0.500000 0.000000 1.000000
v 1.000000 0.000000 -0.500000
v -0.500000 0.000000 -1.000000
v -1.000000 0.000000 -0.500000
v -0.500000 0.000000 1.000000
v 1.000000 0.000000 0.500000
v 0.500000 0.000000 -1.000000
v 0.000000 0.000000 -0.500000
v 0.000000 0.000000 0.500000
v -0.500000 0.000000 0.000000
v 0.500000 0.000000 0.000000
v 0.500000 0.362624 0.500000
v -0.500000 0.362624 0.500000
v -0.500000 0.362624 -0.500000
v 0.500000 0.362624 -0.500000
v -1.000000 0.000000 0.750000
v 0.750000 0.000000 1.000000
v 1.000000 0.000000 -0.750000
v -0.750000 0.000000 -1.000000
v -1.000000 0.000000 -0.250000
v -0.250000 0.000000 1.000000
v 1.000000 0.000000 0.250000
v 0.250000 0.000000 -1.000000
v 0.000000 0.000000 -0.750000
v 0.000000 0.000000 0.250000
v -0.750000 0.000000 0.000000
v 0.250000 0.000000 0.000000
v -1.000000 0.000000 0.250000
v 0.250000 0.000000 1.000000
v 1.000000 0.000000 -0.250000
v -0.250000 0.000000 -1.000000
v -1.000000 0.000000 -0.750000
v -0.750000 0.000000 1.000000
v 1.000000 0.000000 0.750000
v 0.750000 0.000000 -1.000000
v 0.000000 0.000000 -0.250000
v 0.000000 0.000000 0.750000
v -0.250000 0.000000 0.000000
v 0.750000 0.000000 0.000000
v 0.500000 0.362624 0.250000
v 0.500000 0.000000 0.750000
v 0.250000 0.362624 0.500000
v 0.750000 0.000000 0.500000
v -0.500000 0.362624 0.250000
v -0.500000 0.000000 0.750000
v -0.750000 0.000000 0.500000
v -0.250000 0.362624 0.500000
v -0.500000 0.000000 -0.750000
v -0.500000 0.362624 -0.250000
v -0.750000 0.000000 -0.500000
v -0.250000 0.362624 -0.500000
v 0.500000 0.000000 -0.750000
v 0.500000 0.362624 -0.250000
v 0.250000 0.362624 -0.500000
v 0.750000 0.000000 -0.500000
v 0.750000 0.000000 -0.250000
v 0.250000 0.362624 -0.250000
v 0.250000 0.000000 -0.750000
v -0.250000 0.362624 -0.250000
v -0.750000 0.000000 -0.250000
v -0.750000 0.000000 -0.750000
v -0.250000 0.000000 0.750000
v -0.750000 0.000000 0.750000
v -0.750000 0.000000 0.250000
v 0.750000 0.000000 0.750000
v 0.250000 0.000000 0.750000
v 0.250000 0.362624 0.250000
v 0.750000 0.000000 0.250000
v -0.250000 0.362624 0.250000
v -0.250000 0.000000 -0.750000
v 0.750000 0.000000 -0.750000
vt 0.860745 0.124039
vt 0.859859 0.001250
vt 0.982276 0.000001
vt 0.983526 0.122418
vt 0.870608 0.613338
vt 0.867456 0.490354
vt 0.990841 0.488410
vt 0.993623 0.611427
vt 0.350253 0.645062
vt 0.374676 0.495181
vt 0.500000 0.492226
vt 0.499604 0.617585
vt 0.371347 0.124167
vt 0.370745 0.001139
vt 0.493794 0.001409
vt 0.494369 0.124808
vt 0.341276 0.336709
vt 0.344439 0.276672
vt 0.493337 0.250247
vt 0.500396 0.366867
vt 0.129392 0.371114
vt 0.125044 0.251438
vt 0.284231 0.280818
vt 0.281316 0.341098
vt 0.125391 0.125188
vt 0.124070 0.001084
vt 0.249060 0.000000
vt 0.251608 0.122263
vt 0.380622 0.862391
vt 0.347314 0.704873
vt 0.506663 0.734205
vt 0.505631 0.859643
vt 0.139256 0.860412
vt 0.136972 0.738235
vt 0.287340 0.709273
vt 0.261454 0.860201
vt 0.132349 0.619136
vt 0.132544 0.494097
vt 0.257936 0.490504
vt 0.290514 0.649222
vt 0.874609 0.859263
vt 0.874956 0.733013
vt 0.997246 0.733064
vt 0.998714 0.858050
vt 0.628654 0.860284
vt 0.655561 0.707779
vt 0.715769 0.703633
vt 0.748392 0.862188
vt 0.658725 0.647742
vt 0.625325 0.489270
vt 0.742065 0.493947
vt 0.718684 0.643353
vt 0.867651 0.365315
vt 0.863028 0.246216
vt 0.985505 0.244637
vt 0.988885 0.365037
vt 0.649747 0.339390
vt 0.652686 0.279578
vt 0.712661 0.275178
vt 0.709486 0.335230
vt 0.619378 0.122060
vt 0.617182 0.000846
vt 0.737625 0.001767
vt 0.738547 0.124251
vt 0.629255 0.983312
vt 0.750940 0.984451
vt 0.506207 0.983042
vt 0.875930 0.983367
vt 1.000000 0.982119
vt 0.014495 0.739814
vt 0.011116 0.619415
vt 0.009159 0.496041
vt 0.140142 0.983201
vt 0.262376 0.982684
vt 0.017724 0.984451
vt 0.016474 0.862033
vt 0.382819 0.983605
vt 0.002754 0.251388
vt 0.001286 0.126401
vt 0.000000 0.002332
vt 0.006377 0.373024
vn 0.0000 1.0000 0.0000
vn 0.5063 0.6981 -0.5063
vn 0.0000 0.5676 -0.8233
vn 0.0000 0.5676 0.8233
vn -0.5063 0.6981 -0.5063
vn -0.5063 0.6981 0.5063
vn 0.5063 0.6981 0.5063
vn -0.8233 0.5676 0.0000
vn 0.8233 0.5676 0.0000
usemtl None
s off
f 81/1/1 28/2/1 4/3/1 45/4/1
f 80/5/1 34/6/1 8/7/1 41/8/1
f 79/9/2 35/10/2 9/11/2 48/12/2
f 78/13/1 32/14/1 7/15/1 49/16/1
f 77/17/3 50/18/3 21/19/3 37/20/3
f 76/21/4 51/22/4 22/23/4 52/24/4
f 75/25/1 44/26/1 16/27/1 53/28/1
f 74/29/5 54/30/5 20/31/5 36/32/5
f 73/33/6 55/34/6 23/35/6 56/36/6
f 72/37/7 47/38/7 19/39/7 57/40/7
f 71/41/1 58/42/1 13/43/1 29/44/1
f 70/45/8 59/46/8 24/47/8 60/48/8
f 69/49/9 46/50/9 18/51/9 61/52/9
f 68/53/1 62/54/1 17/55/1 33/56/1
f 67/57/1 63/58/1 25/59/1 64/60/1
f 66/61/1 40/62/1 12/63/1 65/64/1
f 63/58/9 66/61/9 65/64/9 25/59/9
f 21/19/7 49/16/7 66/61/7 63/58/7
f 49/16/1 7/15/1 40/62/1 66/61/1
f 46/50/8 67/57/8 64/60/8 18/51/8
f 9/11/6 37/20/6 67/57/6 46/50/6
f 37/20/4 21/19/4 63/58/4 67/57/4
f 34/6/1 68/53/1 33/56/1 8/7/1
f 18/51/5 64/60/5 68/53/5 34/6/5
f 64/60/3 25/59/3 62/54/3 68/53/3
f 59/46/1 69/49/1 61/52/1 24/47/1
f 20/31/4 48/12/4 69/49/4 59/46/4
f 48/12/7 9/11/7 46/50/7 69/49/7
f 30/65/1 70/45/1 60/48/1 14/66/1
f 5/67/1 36/32/1 70/45/1 30/65/1
f 36/32/6 20/31/6 59/46/6 70/45/6
f 42/68/1 71/41/1 29/44/1 3/69/1
f 14/66/1 60/48/1 71/41/1 42/68/1
f 60/48/5 24/47/5 58/42/5 71/41/5
f 55/34/4 72/37/4 57/40/4 23/35/4
f 15/70/1 31/71/1 72/37/1 55/34/1
f 31/71/1 6/72/1 47/38/1 72/37/1
f 26/73/1 73/33/1 56/36/1 10/74/1
f 1/75/1 43/76/1 73/33/1 26/73/1
f 43/76/1 15/70/1 55/34/1 73/33/1
f 38/77/1 74/29/1 36/32/1 5/67/1
f 10/74/1 56/36/1 74/29/1 38/77/1
f 56/36/8 23/35/8 54/30/8 74/29/8
f 51/22/7 75/25/7 53/28/7 22/23/7
f 11/78/1 27/79/1 75/25/1 51/22/1
f 27/79/1 2/80/1 44/26/1 75/25/1
f 47/38/6 76/21/6 52/24/6 19/39/6
f 6/72/1 39/81/1 76/21/1 47/38/1
f 39/81/1 11/78/1 51/22/1 76/21/1
f 35/10/5 77/17/5 37/20/5 9/11/5
f 19/39/8 52/24/8 77/17/8 35/10/8
f 52/24/1 22/23/1 50/18/1 77/17/1
f 50/18/2 78/13/2 49/16/2 21/19/2
f 22/23/9 53/28/9 78/13/9 50/18/9
f 53/28/1 16/27/1 32/14/1 78/13/1
f 54/30/3 79/9/3 48/12/3 20/31/3
f 23/35/1 57/40/1 79/9/1 54/30/1
f 57/40/9 19/39/9 35/10/9 79/9/9
f 58/42/1 80/5/1 41/8/1 13/43/1
f 24/47/3 61/52/3 80/5/3 58/42/3
f 61/52/2 18/51/2 34/6/2 80/5/2
f 62/54/1 81/1/1 45/4/1 17/55/1
f 25/59/2 65/64/2 81/1/2 62/54/2
f 65/64/1 12/63/1 28/2/1 81/1/1
